{
  "accessors": [
    {
      "bufferView": 2,
      "componentType": 5126,
      "count": 7492,
      "max": [
        1.2699099779129028,
        0.90407699346542358,
        5.9762248992919922
      ],
      "min": [
        -1.8810839653015137,
        -1.6411279439926147,
        3.9265251159667969
      ],
      "type": "VEC3"
    },
    {
      "bufferView": 2,
      "byteOffset": 89904,
      "componentType": 5126,
      "count": 7492,
      "max": [
        0.9999997615814209,
        0.99999988079071045,
        1
      ],
      "min": [
        -0.9999997615814209,
        -0.99999988079071045,
        -1
      ],
      "type": "VEC3"
    },
    {
      "bufferView": 3,
      "componentType": 5126,
      "count": 7492,
      "max": [
        0.99998617172241211,
        0.99999827146530151,
        0.99999809265136719,
        1
      ],
      "min": [
        -0.99999994039535522,
        -0.99999552965164185,
        -0.99999785423278809,
        -1
      ],
      "type": "VEC4"
    },
    {
      "bufferView": 1,
      "componentType": 5126,
      "count": 7492,
      "max": [
        0.99113798141479492,
        0.99802702665328979
      ],
      "min": [
        0.058107998222112656,
        0.0053469999693334103
      ],
      "type": "VEC2"
    },
    {
      "bufferView": 0,
      "componentType": 5125,
      "count": 38604,
      "max": [
        7491
      ],
      "min": [
        0
      ],
      "type": "SCALAR"
    },
    {
      "bufferView": 2,
      "byteOffset": 179808,
      "componentType": 5126,
      "count": 6841,
      "max": [
        1.9067360162734985,
        2.0307140350341797,
        5.759850025177002
      ],
      "min": [
        -1.3042130470275879,
        -1.6402180194854736,
        4.2260150909423828
      ],
      "type": "VEC3"
    },
    {
      "bufferView": 2,
      "byteOffset": 261900,
      "componentType": 5126,
      "count": 6841,
      "max": [
        1,
        1,
        1
      ],
      "min": [
        -1,
        -1,
        -1
      ],
      "type": "VEC3"
    },
    {
      "bufferView": 3,
      "byteOffset": 119872,
      "componentType": 5126,
      "count": 6841,
      "max": [
        0.99999892711639404,
        0.99998635053634644,
        0.99999815225601196,
        1
      ],
      "min": [
        -1,
        -0.99997800588607788,
        -1,
        -1
      ],
      "type": "VEC4"
    },
    {
      "bufferView": 1,
      "byteOffset": 59936,
      "componentType": 5126,
      "count": 6841,
      "max": [
        0.97150999307632446,
        0.99957799911499023
      ],
      "min": [
        0.0052950000390410423,
        0.0033050000201910734
      ],
      "type": "VEC2"
    },
    {
      "bufferView": 0,
      "byteOffset": 154416,
      "componentType": 5125,
      "count": 34656,
      "max": [
        6840
      ],
      "min": [
        0
      ],
      "type": "SCALAR"
    }
  ],
  "asset": {
    "extras": {
      "author": "burr_ell (https://sketchfab.com/burr_ell)",
      "license": "CC-BY-4.0 (http://creativecommons.org/licenses/by/4.0/)",
      "source": "https://sketchfab.com/3d-models/ceiling-fan-4e1953a04cb44a61929a569bb868c090",
      "title": "ceiling fan"
    },
    "generator": "Sketchfab-6.91.0",
    "version": "2.0"
  },
  "bufferViews": [
    {
      "buffer": 0,
      "byteLength": 293040,
      "byteOffset": 0,
      "name": "floatBufferViews",
      "target": 34963
    },
    {
      "buffer": 0,
      "byteLength": 114664,
      "byteOffset": 293040,
      "byteStride": 8,
      "name": "floatBufferViews",
      "target": 34962
    },
    {
      "buffer": 0,
      "byteLength": 343992,
      "byteOffset": 407704,
      "byteStride": 12,
      "name": "floatBufferViews",
      "target": 34962
    },
    {
      "buffer": 0,
      "byteLength": 229328,
      "byteOffset": 751696,
      "byteStride": 16,
      "name": "floatBufferViews",
      "target": 34962
    }
  ],
  "buffers": [
    {
      "byteLength": 981024,
      "uri": "scene.bin"
    }
  ],
  "images": [
    {
      "uri": "textures/initialShadingGroup_baseColor.png"
    },
    {
      "uri": "textures/initialShadingGroup_metallicRoughness.png"
    },
    {
      "uri": "textures/initialShadingGroup_normal.png"
    }
  ],
  "materials": [
    {
      "doubleSided": true,
      "name": "initialShadingGroup",
      "normalTexture": {
        "index": 2,
        "scale": 0.12366615853658537,
        "texCoord": 0
      },
      "pbrMetallicRoughness": {
        "baseColorFactor": [
          1,
          1,
          1,
          1
        ],
        "baseColorTexture": {
          "index": 0,
          "texCoord": 0
        },
        "metallicFactor": 0,
        "metallicRoughnessTexture": {
          "index": 1,
          "texCoord": 0
        },
        "roughnessFactor": 1
      }
    }
  ],
  "meshes": [
    {
      "primitives": [
        {
          "attributes": {
            "NORMAL": 1,
            "POSITION": 0,
            "TANGENT": 2,
            "TEXCOORD_0": 3
          },
          "indices": 4,
          "material": 0,
          "mode": 4
        }
      ]
    },
    {
      "primitives": [
        {
          "attributes": {
            "NORMAL": 6,
            "POSITION": 5,
            "TANGENT": 7,
            "TEXCOORD_0": 8
          },
          "indices": 9,
          "material": 0,
          "mode": 4
        }
      ]
    }
  ],
  "nodes": [
    {
      "children": [
        1
      ],
      "name": "RootNode (gltf orientation matrix)",
      "rotation": [
        -0.70710678118654746,
        -0,
        -0,
        0.70710678118654757
      ]
    },
    {
      "children": [
        2
      ],
      "name": "RootNode (model correction matrix)"
    },
    {
      "children": [
        3,
        4
      ],
      "name": "CF.obj.cleaner.materialmerger.gles"
    },
    {
      "mesh": 0,
      "name": ""
    },
    {
      "mesh": 1,
      "name": ""
    }
  ],
  "samplers": [
    {
      "magFilter": 9729,
      "minFilter": 9987,
      "wrapS": 10497,
      "wrapT": 10497
    }
  ],
  "scene": 0,
  "scenes": [
    {
      "name": "OSG_Scene",
      "nodes": [
        0
      ]
    }
  ],
  "textures": [
    {
      "sampler": 0,
      "source": 0
    },
    {
      "sampler": 0,
      "source": 1
    },
    {
      "sampler": 0,
      "source": 2
    }
  ]
}

